<?xml version="1.0" encoding="UTF-8" standalone="no"?>
<svg
   xmlns:dc="http://purl.org/dc/elements/1.1/"
   xmlns:cc="http://creativecommons.org/ns#"
   xmlns:rdf="http://www.w3.org/1999/02/22-rdf-syntax-ns#"
   xmlns:svg="http://www.w3.org/2000/svg"
   xmlns="http://www.w3.org/2000/svg"
   id="svg1474"
   version="1.1"
   viewBox="0 0 4.2333329 5.2916703"
   height="20.000013"
   width="15.999999">
  <defs
     id="defs1468" />
  <metadata
     id="metadata1471">
    <rdf:RDF>
      <cc:Work
         rdf:about="">
        <dc:format>image/svg+xml</dc:format>
        <dc:type
           rdf:resource="http://purl.org/dc/dcmitype/StillImage" />
        <dc:title></dc:title>
      </cc:Work>
    </rdf:RDF>
  </metadata>
  <g transform="translate(-6.312204,-163.19642)">
    <path
       id="path1190"
      fill="currentColor"
       d="m 6.8413707,163.19642 c -0.2922508,0 -0.5291667,0.23692 -0.5291667,0.52917 v 4.23333 c 0,0.29225 0.2369159,0.52917 0.5291667,0.52917 h 3.1750003 c 0.292251,0 0.529166,-0.23692 0.529166,-0.52917 v -4.23333 c 0,-0.29369 -0.238127,-0.52917 -0.529166,-0.52917 z m 0.2552805,1.10949 a 0.26458332,0.26458332 0 0 1 0.2645834,0.26459 0.26458332,0.26458332 0 0 1 -0.2645834,0.26458 0.26458332,0.26458332 0 0 1 -0.2645833,-0.26458 0.26458332,0.26458332 0 0 1 0.2645833,-0.26459 z m 0.7379388,0 h 2.1554255 v 0.52917 H 7.83459 Z m -0.7379388,1.04128 a 0.26458332,0.26458332 0 0 1 0.2645834,0.26458 0.26458332,0.26458332 0 0 1 -0.2645834,0.26459 0.26458332,0.26458332 0 0 1 -0.2645833,-0.26459 0.26458332,0.26458332 0 0 1 0.2645833,-0.26458 z m 0.7379388,0 h 2.1554255 v 0.52917 H 7.83459 Z m -0.7379388,1.04128 a 0.26458332,0.26458332 0 0 1 0.2645834,0.26459 0.26458332,0.26458332 0 0 1 -0.2645834,0.26458 0.26458332,0.26458332 0 0 1 -0.2645833,-0.26458 0.26458332,0.26458332 0 0 1 0.2645833,-0.26459 z m 0.7379388,0 h 2.1554255 v 0.52917 H 7.83459 Z m 0,1.04077 h 2.1554255 v 0.52968 H 7.83459 Z m -0.7379388,5.3e-4 a 0.26458332,0.26458332 0 0 1 0.2645834,0.26458 0.26458332,0.26458332 0 0 1 -0.2645834,0.26458 0.26458332,0.26458332 0 0 1 -0.2645833,-0.26458 0.26458332,0.26458332 0 0 1 0.2645833,-0.26458 z" />
  </g>
</svg>
