<?xml version="1.0" encoding="UTF-8" standalone="no"?>
<svg
   xmlns:dc="http://purl.org/dc/elements/1.1/"
   xmlns:cc="http://creativecommons.org/ns#"
   xmlns:rdf="http://www.w3.org/1999/02/22-rdf-syntax-ns#"
   xmlns:svg="http://www.w3.org/2000/svg"
   xmlns="http://www.w3.org/2000/svg"
   id="svg949"
   version="1.1"
   viewBox="0 0 4.233333 5.2730603"
   height="19.929676"
   width="15.999999">
  <defs
     id="defs943" />
  <metadata
     id="metadata946">
    <rdf:RDF>
      <cc:Work
         rdf:about="">
        <dc:format>image/svg+xml</dc:format>
        <dc:type
           rdf:resource="http://purl.org/dc/dcmitype/StillImage" />
        <dc:title></dc:title>
      </cc:Work>
    </rdf:RDF>
  </metadata>
  <g
     transform="translate(125.9102,-325.34496)"
     id="layer1">
    <g
       id="g1546"
       transform="translate(-196.4785,150.56338)">
      <path
         id="path925"
         d="m 70.568301,174.78158 v 0.52916 h 3.704166 v 1.97508 0.26458 1.97507 h -3.704166 v 0.52917 h 3.704166 c 0.292251,0 0.529167,-0.23692 0.529167,-0.52917 v -1.97507 -0.26458 -1.97508 c 0,-0.29225 -0.236916,-0.52916 -0.529167,-0.52916 z"
         fill="currentColor" />
      <path
         id="path931"
         d="m 74.263043,176.11896 a 1.2992931,1.2992931 0 0 0 -1.299146,1.29915 1.2992931,1.2992931 0 0 0 1.299146,1.29914 1.2992931,1.2992931 0 0 0 0.0098,-5.1e-4 v -2.59726 a 1.2992931,1.2992931 0 0 0 -0.0098,-5.2e-4 z"
         style="opacity:1;fill:#aed581;fill-opacity:1;stroke:none;stroke-width:0.27199998;stroke-linecap:butt;stroke-linejoin:round;stroke-miterlimit:4;stroke-dasharray:none;stroke-dashoffset:0;stroke-opacity:1" />
    </g>
  </g>
</svg>
