<?xml version="1.0" encoding="UTF-8" standalone="no"?>
<svg
   xmlns:dc="http://purl.org/dc/elements/1.1/"
   xmlns:cc="http://creativecommons.org/ns#"
   xmlns:rdf="http://www.w3.org/1999/02/22-rdf-syntax-ns#"
   xmlns:svg="http://www.w3.org/2000/svg"
   xmlns="http://www.w3.org/2000/svg"
   id="svg949"
   version="1.1"
   viewBox="0 0 4.2333398 5.2730704"
   height="19.929714"
   width="16.000025">
  <defs
     id="defs943" />
  <metadata
     id="metadata946">
    <rdf:RDF>
      <cc:Work
         rdf:about="">
        <dc:format>image/svg+xml</dc:format>
        <dc:type
           rdf:resource="http://purl.org/dc/dcmitype/StillImage" />
        <dc:title></dc:title>
      </cc:Work>
    </rdf:RDF>
  </metadata>
  <g
     transform="translate(141.96786,-311.75037)"
     id="layer1">
    <path
       id="path907"
       d="m -141.96786,311.75037 v 0.52917 h 3.70417 v 1.97507 0.26459 1.97507 h -3.70417 v 0.52917 h 3.70417 c 0.29225,0 0.52917,-0.23692 0.52917,-0.52917 v -1.97507 -0.26459 -1.97507 c 0,-0.29225 -0.23692,-0.52917 -0.52917,-0.52917 z"
       fill="currentColor" />
    <path
       id="path919"
       d="m -138.27311,313.08776 a 1.2992931,1.2992931 0 0 0 -1.29915,1.29915 1.2992931,1.2992931 0 0 0 1.29915,1.29914 1.2992931,1.2992931 0 0 0 0.01,-5.1e-4 v -2.59726 a 1.2992931,1.2992931 0 0 0 -0.01,-5.3e-4 z"
       style="opacity:1;fill:#ffb74d;fill-opacity:1;stroke:none;stroke-width:0.27199998;stroke-linecap:butt;stroke-linejoin:round;stroke-miterlimit:4;stroke-dasharray:none;stroke-dashoffset:0;stroke-opacity:1" />
  </g>
</svg>
