<?xml version="1.0" encoding="UTF-8" standalone="no"?>
<svg
   xmlns:dc="http://purl.org/dc/elements/1.1/"
   xmlns:cc="http://creativecommons.org/ns#"
   xmlns:rdf="http://www.w3.org/1999/02/22-rdf-syntax-ns#"
   xmlns:svg="http://www.w3.org/2000/svg"
   xmlns="http://www.w3.org/2000/svg"
   id="svg1474"
   version="1.1"
   viewBox="0 0 4.2333338 5.2916704"
   height="20.000013"
   width="16.000002">
  <defs
     id="defs1468" />
  <metadata
     id="metadata1471">
    <rdf:RDF>
      <cc:Work
         rdf:about="">
        <dc:format>image/svg+xml</dc:format>
        <dc:type
           rdf:resource="http://purl.org/dc/dcmitype/StillImage" />
        <dc:title></dc:title>
      </cc:Work>
    </rdf:RDF>
  </metadata>
  <g
     transform="translate(16.688644,-157.84957)"
     id="layer1">
    <path
      fill="currentColor"
       d="m -16.159477,157.84957 c -0.293682,0 -0.529167,0.23549 -0.529167,0.52917 v 4.23333 c 0,0.29104 0.235485,0.52917 0.529167,0.52917 h 3.175 c 0.292248,0 0.529167,-0.23692 0.529167,-0.52917 v -3.175 l -1.587501,-1.5875 z m 1.852083,0.39687 1.455209,1.45521 h -1.455209 z m -1.382863,2.12494 c 0.0838,0.003 0.172812,0.0374 0.239263,0.10387 0.0404,0.0403 0.04583,0.059 0.06873,0.0956 0.02281,0.0366 0.0486,0.0795 0.0739,0.12092 0.0037,0.007 0.0079,0.0111 0.01188,0.0181 0.0218,-0.0247 0.03848,-0.0464 0.06408,-0.0724 0.04872,-0.0495 0.102298,-0.0988 0.166399,-0.13487 0.03209,-0.0181 0.06819,-0.0342 0.116789,-0.0372 0.04862,-0.003 0.112345,0.0167 0.152445,0.0568 0.0735,0.0735 0.10159,0.14883 0.129191,0.18913 0.01381,0.0201 0.02495,0.0311 0.02894,0.0331 0.0037,0.002 -1.45e-4,0.001 0.01394,0 0.03335,-0.003 0.132868,-0.0642 0.238228,-0.14212 0.05268,-0.0389 0.108932,-0.0805 0.173633,-0.11161 0.0647,-0.0312 0.144944,-0.055 0.232542,-0.0331 0.137861,0.0345 0.190164,0.13808 0.242364,0.21498 0.05218,0.0769 0.107172,0.14224 0.11317,0.14624 0.05701,0.0344 0.09071,0.0353 0.13281,0.0253 0.04207,-0.01 0.09384,-0.0405 0.146244,-0.0879 0.104859,-0.0946 0.203353,-0.24838 0.285255,-0.3576 l 0.219107,0.16433 c -0.06825,0.091 -0.175922,0.26418 -0.322461,0.39636 -0.07327,0.0661 -0.15834,0.12528 -0.263549,0.15038 -0.10522,0.0251 -0.228584,0.007 -0.337966,-0.0584 -0.106169,-0.0637 -0.149103,-0.15576 -0.197403,-0.22686 -0.0483,-0.0711 -0.100817,-0.10528 -0.08372,-0.10128 -0.0024,-5.3e-4 -0.01558,-0.003 -0.04909,0.0134 -0.03351,0.0161 -0.07897,0.0474 -0.128675,0.0842 -0.09948,0.0736 -0.207803,0.17874 -0.373104,0.19534 -0.06706,0.007 -0.135218,-0.009 -0.185518,-0.0408 -0.05028,-0.0315 -0.08455,-0.0732 -0.109554,-0.10956 -0.034,-0.0495 -0.04825,-0.0746 -0.06615,-0.10335 -0.02281,0.0168 -0.04815,0.0353 -0.07855,0.0661 -0.04023,0.0408 -0.0796,0.0862 -0.111104,0.12299 -0.0158,0.0184 -0.03049,0.0354 -0.04289,0.0491 -0.0062,0.007 -0.01164,0.0111 -0.01963,0.0191 -0.0042,0.004 -0.0096,0.009 -0.01963,0.016 -0.0049,0.003 -0.02077,0.0132 -0.02119,0.0134 -2.01e-4,0 -0.02151,0.008 -0.0217,0.008 -2.01e-4,0 -0.03706,0.006 -0.03721,0.006 -5.29e-4,0 -0.04242,-0.008 -0.04289,-0.008 -5.29e-4,-1e-4 -0.01831,-0.008 -0.02532,-0.0119 -0.0132,-0.007 -0.02138,-0.0126 -0.02739,-0.0176 -0.0123,-0.0106 -0.01931,-0.0173 -0.02532,-0.0253 -0.01291,-0.0154 -0.02363,-0.032 -0.03514,-0.0491 -0.0231,-0.0342 -0.04861,-0.0744 -0.07441,-0.11678 -0.0259,-0.0425 -0.05155,-0.0861 -0.07235,-0.11938 -0.0213,-0.0333 -0.05064,-0.0687 -0.02894,-0.047 -0.0371,-0.0372 -0.03763,-0.0313 -0.06253,-0.0253 -0.02492,0.006 -0.07463,0.0364 -0.127124,0.0858 -0.05252,0.0494 -0.108765,0.11492 -0.162264,0.17621 -0.05348,0.0613 -0.0999,0.11695 -0.1695,0.16175 l -0.146761,-0.22841 c 0.01056,-0.007 0.06002,-0.0541 0.111622,-0.11317 0.05158,-0.0591 0.110818,-0.12887 0.179316,-0.19327 0.06846,-0.0644 0.145098,-0.12684 0.248047,-0.15245 0.02574,-0.006 0.0532,-0.009 0.08113,-0.008 z m 0.04754,1.23559 c 0.08419,-0.003 0.174281,0.0185 0.256315,0.0677 0.106169,0.0637 0.149106,0.15731 0.197403,0.22841 0.0482,0.0711 0.09865,0.10529 0.08165,0.10129 0.0024,5.3e-4 0.01765,0.003 0.05116,-0.0134 0.03351,-0.0161 0.07897,-0.0474 0.128675,-0.0842 0.09948,-0.0736 0.207803,-0.17873 0.373102,-0.19533 0.06706,-0.007 0.135218,0.01 0.185518,0.0413 0.05028,0.0315 0.08456,0.0725 0.109556,0.10903 0.034,0.0495 0.04824,0.0751 0.06615,0.10387 0.02281,-0.0168 0.04763,-0.0359 0.07803,-0.0667 0.04022,-0.0408 0.08012,-0.0862 0.111619,-0.12299 0.0158,-0.0184 0.03049,-0.0349 0.04289,-0.0486 0.0062,-0.007 0.01164,-0.0137 0.01963,-0.0217 0.0042,-0.004 0.0091,-0.007 0.01913,-0.014 0.0049,-0.003 0.02127,-0.0132 0.0217,-0.0134 1.99e-4,0 0.02154,-0.008 0.0217,-0.008 2.01e-4,0 0.03655,-0.006 0.03669,-0.006 5.3e-4,0 0.04294,0.008 0.04341,0.008 5.3e-4,0 0.01834,0.006 0.02532,0.0103 0.0132,0.007 0.02138,0.0141 0.02739,0.0191 0.0123,0.0106 0.01931,0.0178 0.02532,0.0258 0.01288,0.0153 0.02363,0.0315 0.03514,0.0486 0.0231,0.0342 0.0481,0.0749 0.0739,0.1173 0.0259,0.0424 0.05155,0.0856 0.07235,0.11886 0.0213,0.0333 0.05116,0.0687 0.02946,0.047 0.0371,0.0372 0.03763,0.0313 0.06253,0.0253 0.02492,-0.006 0.07462,-0.0364 0.127125,-0.0858 0.05252,-0.0494 0.108246,-0.1144 0.161748,-0.1757 0.05348,-0.0613 0.09835,-0.11953 0.167946,-0.16433 l 0.148829,0.22893 c -0.01056,0.007 -0.06002,0.0561 -0.11162,0.11524 -0.05159,0.0591 -0.111435,0.12887 -0.179835,0.19327 -0.06846,0.0644 -0.145097,0.12684 -0.248047,0.15244 -0.102949,0.0256 -0.231277,-0.01 -0.319878,-0.0982 -0.0404,-0.0403 -0.04583,-0.0569 -0.06873,-0.0935 -0.02289,-0.0366 -0.0486,-0.0795 -0.0739,-0.12092 -0.0047,-0.007 -0.0079,-0.0127 -0.01188,-0.0196 -0.02209,0.0249 -0.04015,0.048 -0.06615,0.0744 -0.04872,0.0494 -0.100232,0.0967 -0.16433,0.13281 -0.03208,0.0181 -0.06871,0.0358 -0.117306,0.0388 -0.04862,0.003 -0.112347,-0.0162 -0.152445,-0.0563 -0.0735,-0.0735 -0.101076,-0.15142 -0.128675,-0.19172 -0.01381,-0.0201 -0.02545,-0.029 -0.02946,-0.031 -0.0037,-0.002 7.94e-4,-0.003 -0.01344,-0.002 -0.03336,0.003 -0.132868,0.0668 -0.238228,0.14469 -0.05269,0.039 -0.10945,0.0779 -0.174151,0.10904 -0.0647,0.0312 -0.144426,0.0555 -0.232027,0.0336 -0.137858,-0.0345 -0.190161,-0.13601 -0.242361,-0.21291 -0.05218,-0.0769 -0.107172,-0.14276 -0.113173,-0.14676 -0.05697,-0.0344 -0.09278,-0.0353 -0.134874,-0.0253 -0.04206,0.01 -0.0923,0.0385 -0.144695,0.0858 -0.10486,0.0946 -0.203353,0.24838 -0.285253,0.3576 l -0.218593,-0.16226 c 0.06826,-0.091 0.175911,-0.26418 0.322461,-0.39636 0.07327,-0.0661 0.15834,-0.12528 0.263551,-0.15038 0.0263,-0.006 0.05358,-0.01 0.08165,-0.0109 z"
       style="stroke-width:0.26458332" />
  </g>
</svg>
