<?xml version="1.0" encoding="UTF-8" standalone="no"?>
<svg xmlns="http://www.w3.org/2000/svg" viewBox="0 0 4.7625003 4.53439" height="17.137852" width="18.000002"><g transform="translate(-6.2485336,-163.28292)"><path       d="m 7.6794686,163.28343 -0.478007,0.47801 -0.472323,-0.47181 -0.471805,0.47181 -0.0088,-0.009 v 3.53571 a 0.52916667,0.52916667 0 0 0 0.529166,0.52916 h 3.7041674 a 0.52916667,0.52916667 0 0 0 0.529167,-0.52916 v -3.53622 l -0.0093,0.009 -0.478007,-0.47801 -0.478523,0.47801 -0.4718084,-0.47181 -0.471805,0.47181 -0.471805,-0.47181 -0.472323,0.47181 z m -0.372586,0.82992 h 2.645834 v 0.52917 h -2.645834 z m 0,1.05885 h 2.645834 v 0.52865 h -2.645834 z m 0,1.05782 h 1.852083 v 0.52968 h -1.852083 z"  fill="currentColor" /></g></svg>

