<?xml version="1.0" encoding="UTF-8" standalone="no"?>
<svg
   xmlns:dc="http://purl.org/dc/elements/1.1/"
   xmlns:cc="http://creativecommons.org/ns#"
   xmlns:rdf="http://www.w3.org/1999/02/22-rdf-syntax-ns#"
   xmlns:svg="http://www.w3.org/2000/svg"
   xmlns="http://www.w3.org/2000/svg"
   id="svg1474"
   version="1.1"
   viewBox="0 0 4.7624999 4.7625001"
   height="18"
   width="18">
  <defs
     id="defs1468" />
  <metadata
     id="metadata1471">
    <rdf:RDF>
      <cc:Work
         rdf:about="">
        <dc:format>image/svg+xml</dc:format>
        <dc:type
           rdf:resource="http://purl.org/dc/dcmitype/StillImage" />
        <dc:title></dc:title>
      </cc:Work>
    </rdf:RDF>
  </metadata>
  <g
     transform="translate(5.0648794,-155.90149)"
     id="layer1">
    <path
      fill="currentColor"
       d="m -4.5357127,155.90149 c -0.2936902,0 -0.5291667,0.23548 -0.5291667,0.52917 v 3.70416 c 0,0.29225 0.2369159,0.52917 0.5291667,0.52917 h 3.70416662 c 0.2922508,0 0.5291693,-0.23692 0.5291667,-0.52917 v -3.70416 c 0,-0.29369 -0.238125,-0.52917 -0.5291667,-0.52917 z m 1.8520833,0.68058 a 1.7008934,1.7008934 0 0 1 1.70118882,1.70067 1.7008934,1.7008934 0 0 1 -1.70118882,1.70119 1.7008934,1.7008934 0 0 1 -1.7006702,-1.70119 c 0,-0.93549 0.7600791,-1.70067 1.7006702,-1.70067 z m 0,0.3452 c -0.1411711,0.2041 -0.2547858,0.43218 -0.3245273,0.67541 h 0.6495732 c -0.069736,-0.24322 -0.1838669,-0.47131 -0.3250459,-0.67541 z m -0.441833,0.0698 c -0.3112638,0.10546 -0.5732568,0.3233 -0.7348379,0.60565 h 0.4966097 c 0.059537,-0.21262 0.1361758,-0.41685 0.2382282,-0.60565 z m 0.8826341,0 c 0.1020551,0.1888 0.1801601,0.39304 0.2346114,0.60565 h 0.501777 c -0.163285,-0.28235 -0.423426,-0.4985 -0.7363884,-0.60565 z m -1.7569974,0.94568 c -0.027191,0.10886 -0.044442,0.22267 -0.044442,0.34003 0,0.11736 0.017251,0.23118 0.044442,0.34003 h 0.5746407 c -0.013573,-0.11225 -0.02376,-0.22437 -0.02376,-0.34003 0,-0.11566 0.010134,-0.22777 0.02376,-0.34003 z m 0.9182894,0 c -0.01696,0.11056 -0.02739,0.22437 -0.02739,0.34003 0,0.11565 0.010345,0.22778 0.02739,0.34003 h 0.7958164 c 0.015293,-0.11225 0.02739,-0.22437 0.02739,-0.34003 0,-0.11566 -0.012091,-0.22947 -0.02739,-0.34003 z m 1.1394652,0 c 0.013573,0.11226 0.02376,0.22437 0.02376,0.34003 0,0.11565 -0.010134,0.22778 -0.02376,0.34003 h 0.5751592 c 0.027189,-0.10885 0.043924,-0.22267 0.043924,-0.34003 0,-0.11736 -0.016722,-0.23117 -0.043924,-0.34003 z m -1.9182292,1.02061 c 0.1615811,0.28066 0.4235741,0.49798 0.7348379,0.60513 -0.1020524,-0.18879 -0.1786969,-0.39251 -0.2382282,-0.60513 z m 0.8521436,0 c 0.069736,0.24323 0.1833562,0.46924 0.3245273,0.67334 0.141179,-0.2041 0.255307,-0.43011 0.3250459,-0.67334 z m 0.9999398,0 c -0.05443,0.21262 -0.1325563,0.41634 -0.2346114,0.60513 0.3129624,-0.10715 0.5731034,-0.32448 0.7363884,-0.60513 z"
       style="stroke-width:0.26458332" />
  </g>
</svg>
