<?xml version="1.0" encoding="UTF-8" standalone="no"?>
<!-- Created with Inkscape (http://www.inkscape.org/) -->

<svg
     pagecolor="#505050"
     bordercolor="#eeeeee"
     borderopacity="1"
     inkscape:pageshadow="0"
     inkscape:pageopacity="0"
     inkscape:pagecheckerboard="0"
     showgrid="false"
     inkscape:zoom="11.016584"
     inkscape:cx="36.535826"
     inkscape:cy="36.626598"
     inkscape:window-width="1848"
     inkscape:window-height="1016"
     inkscape:window-x="72"
     inkscape:window-y="294"
     inkscape:window-maximized="1"
     inkscape:current-layer="g2863"
   version="1.1"
   id="svg2857"
   xml:space="preserve"
   width="73.014931"
   height="73.253197"
   viewBox="0 0 73.014931 73.253197"
   sodipodi:docname="cave_active.ai.svg"
   inkscape:version="1.1 (ce6663b3b7, 2021-05-25)"
   xmlns:inkscape="http://www.inkscape.org/namespaces/inkscape"
   xmlns:sodipodi="http://sodipodi.sourceforge.net/DTD/sodipodi-0.dtd"
   xmlns="http://www.w3.org/2000/svg"
   xmlns:svg="http://www.w3.org/2000/svg"><defs
     id="defs2861"><clipPath
       clipPathUnits="userSpaceOnUse"
       id="clipPath2871"><path
         d="M 0,54.94 H 54.761 V 0 H 0 Z"
         id="path2869" /></clipPath></defs>
    <g
     id="g2863"
     inkscape:groupmode="layer"
     inkscape:label="cave_active"
     transform="matrix(1.3333333,0,0,-1.3333333,0,73.2532)"><g
       id="g2865"><g
         id="g2867"
         clip-path="url(#clipPath2871)"><g
           id="g2873"
           transform="translate(53.4399,2.208)"><path
             d="m 0,0 c 0,-0.419 -0.282,-0.759 -0.633,-0.759 h -51.175 c -0.35,0 -0.632,0.34 -0.632,0.759 v 50.926 c 0,0.42 0.282,0.757 0.632,0.757 H -0.633 C -0.282,51.683 0,51.346 0,50.926 Z"
             style="fill:#ffffff;fill-opacity:1;fill-rule:nonzero;stroke:none"
             id="path2875" /></g><g
           id="g2877"
           transform="translate(53.4399,2.208)"><path
             d="m 0,0 c 0,-0.419 -0.282,-0.759 -0.633,-0.759 h -51.175 c -0.35,0 -0.632,0.34 -0.632,0.759 v 50.926 c 0,0.42 0.282,0.757 0.632,0.757 H -0.633 C -0.282,51.683 0,51.346 0,50.926 Z"
             style="fill:none;stroke:#772e18;stroke-width:1;stroke-linecap:butt;stroke-linejoin:miter;stroke-miterlimit:10;stroke-dasharray:none;stroke-opacity:1"
             id="path2879" /></g><path
           d="M 2.475,52.382 H 51.924 V 2.933 H 2.475 Z"
           style="fill:#ffffff;fill-opacity:1;fill-rule:nonzero;stroke:none"
           id="path2881" /><g
           id="g2883"
           transform="translate(52.3032,53.3823)"><path
             d="m 0,0 h -50.207 c -0.344,0 -0.621,-0.331 -0.621,-0.743 v -49.962 c 0,-0.41 0.277,-0.744 0.621,-0.744 H 0 c 0.344,0 0.621,0.334 0.621,0.744 V -0.743 C 0.621,-0.331 0.344,0 0,0 M -1.379,-49.449 H -48.828 V -2 h 47.449 z"
             style="fill:#87be9f;fill-opacity:1;fill-rule:nonzero;stroke:none"
             id="path2885" /></g><g
           id="g2887"
           transform="translate(32.4683,20.5986)"><path
             d="m 0,0 c 0.007,0.049 -0.005,0.593 -0.028,0.839 -0.042,0.446 0.023,0.896 0,1.342 -0.007,0.136 -0.018,0.937 -0.028,1.035 -0.042,0.4 -0.127,1.006 -0.175,1.439 -0.084,0.74 -0.219,1.375 -0.356,2.251 -0.078,0.495 -0.178,0.765 -0.336,1.174 -0.229,0.597 -0.617,1.77 -0.922,2.153 -0.152,0.191 -0.889,0.871 -1.203,0.979 -0.318,0.108 -1.375,0.263 -1.594,0.278 -0.761,0.059 -2.722,-0.295 -2.851,-0.334 -0.881,-0.268 -1.385,-0.779 -1.93,-1.398 -0.43,-0.489 -0.771,-1.121 -1.033,-1.818 -0.377,-0.996 -0.621,-2.222 -0.728,-3.438 -0.117,-1.33 -0.245,-2.758 -0.307,-4.138 -0.039,-0.85 -0.103,-1.732 0.056,-2.461 -0.248,-0.247 -0.633,-0.355 -0.867,-0.614 0.748,-0.365 1.86,-0.243 2.852,-0.309 0.66,-0.042 1.397,-0.187 3.15,-0.249 0.27,-0.009 1.147,0.054 1.463,0.054 1.076,0 2.063,0.155 3.02,0.224 0.119,0.028 2.456,0.198 2.824,0.418 -0.307,0.16 -0.501,0.433 -0.784,0.617 -1.325,-0.209 -2.759,-0.442 -4.165,-0.504 -0.637,-0.027 -2.672,0.009 -2.992,0.027 -1.317,0.077 -2.865,-0.03 -3.915,0.169 -0.159,0.03 -0.552,0.035 -0.615,0.216 0.197,0.197 0.594,0.017 0.812,-0.021 0.305,-0.052 3.012,-0.063 3.914,-0.167 0.319,-0.037 1.096,-0.01 1.202,0 0.15,0.013 3.984,0.254 5.564,0.447 C -0.018,-1.26 -0.007,-0.046 0,0 M 0.978,4.781 C 0.956,4.925 0.622,7.68 0.614,7.801 0.593,8.186 0.099,9.757 -0.112,10.149 c -0.412,0.774 -1.021,1.4 -1.678,1.818 -1.648,0.859 -2.468,1.077 -4.305,0.95 -0.512,-0.034 -2.251,-0.466 -3.328,-1.37 -0.469,-0.395 -0.896,-0.901 -1.201,-1.398 -0.328,-0.534 -0.875,-2.82 -0.979,-3.299 -0.093,-0.433 -0.703,-6.042 -0.727,-6.347 -0.029,-0.359 -0.063,-2.386 -0.168,-3.019 0.204,0.123 0.558,0.336 0.811,0.503 -0.15,1.089 -0.078,2.11 -0.027,3.215 0.03,0.694 0.506,4.981 0.614,5.481 0.382,1.771 0.941,3.097 2.181,3.968 1.707,1.2 3.44,1.293 3.908,1.266 0.569,-0.033 1.483,-0.277 2.019,-0.453 C -1.501,10.818 -0.921,9.1 -0.447,7.409 -0.303,6.893 0.059,4.482 0.083,4.278 0.104,4.106 0.151,2.428 0.167,1.678 0.181,1.071 0.185,-1.158 0.308,-1.678 0.331,-1.747 0.989,-2.136 1.202,-2.349 1.165,-1.456 1.104,3.989 0.978,4.781 m -13.727,-7.605 c 0.131,1.049 0.191,3.956 0.223,4.25 0.099,0.915 0.543,6.337 1.454,8.416 0.324,0.74 0.964,1.373 1.566,1.957 0.312,0.302 1.373,1.006 2.712,1.286 2.34,0.49 3.551,-0.129 5.088,-0.895 0.715,-0.441 1.318,-1.016 1.734,-1.817 C 0.349,9.754 0.784,8.54 0.839,8.024 0.929,7.171 1.375,3.565 1.37,2.908 1.366,2.392 1.386,-0.391 1.426,-1.481 1.44,-1.861 1.52,-2.297 1.454,-2.487 1.375,-2.716 1.102,-2.757 0.895,-2.907 c -1.248,-0.229 -2.559,-0.264 -3.859,-0.392 -0.441,-0.044 -0.877,-0.1 -1.313,-0.139 -0.593,-0.054 -3.126,0.018 -3.495,0 -0.374,-0.02 -3.61,0.221 -4.139,0.334 -0.301,0.066 -0.57,0.254 -0.838,0.28"
             style="fill:#888888;fill-opacity:1;fill-rule:evenodd;stroke:none"
             id="path2889" /></g><g
           id="g2891"
           transform="translate(7.4692,34.3335)"><path
             d="m 0,0 c -0.523,0.147 -1.027,0.299 -1.524,0.449 -1.308,0.396 -2.542,0.769 -3.948,0.983 l 0.037,0.247 C -4.012,1.462 -2.768,1.086 -1.452,0.688 -0.957,0.539 -0.455,0.387 0.066,0.241 Z"
             style="fill:#878888;fill-opacity:1;fill-rule:nonzero;stroke:none"
             id="path2893" /></g><g
           id="g2895"
           transform="translate(46.1851,34.6104)"><path
             d="M 0,0 -0.057,0.244 C 2.165,0.751 4.014,0.92 6.278,1.028 L 6.29,0.778 C 4.04,0.671 2.202,0.504 0,0"
             style="fill:#878888;fill-opacity:1;fill-rule:nonzero;stroke:none"
             id="path2897" /></g><g
           id="g2899"
           transform="translate(40.5483,21.5781)"><path
             d="m 0,0 c -0.011,0.069 -0.108,0.001 -0.085,-0.057 -0.404,0.937 -1.06,1.624 -1.9,2.125 -0.27,-0.011 -0.404,0.117 -0.7,0.14 0.329,1.005 1.733,3.479 2.293,3.691 C 0.092,6.081 0.409,6.194 0.951,6.29 1.556,6.396 1.98,6.607 2.628,6.514 3.102,6.235 3.71,6.292 4.138,6.066 4.229,6.019 4.312,5.892 4.417,5.814 5.155,5.276 5.542,4.443 6.067,3.634 6.171,3.474 6.253,3.308 6.374,3.132 6.562,2.008 6.901,1.014 6.934,-0.141 6.938,-0.265 6.902,-0.403 6.905,-0.531 6.911,-0.73 6.981,-0.937 6.99,-1.146 6.993,-1.246 6.954,-1.354 6.961,-1.455 6.976,-1.646 7.041,-1.785 7.045,-2.014 7.052,-2.305 7.169,-2.59 7.185,-2.853 7.262,-4.07 7.146,-5.503 7.214,-6.822 7.221,-6.98 7.318,-7.149 7.324,-7.298 7.346,-7.766 7.256,-8.324 7.269,-8.892 7.271,-8.97 7.317,-9.037 7.324,-9.115 7.38,-9.702 7.207,-10.29 7.157,-10.877 c -0.068,-0.798 0.114,-1.564 0.14,-2.349 -0.4,0.14 -0.727,0.339 -1.118,0.505 -0.246,0.102 -0.514,0.176 -0.7,0.364 -0.124,-0.023 -0.167,0.037 -0.279,0.026 -1.192,0.56 -2.188,1.317 -3.467,1.79 -0.05,0.043 -0.116,0.07 -0.14,0.14 -0.575,-0.111 -0.649,0.282 -0.895,0.504 0.1,2.03 -0.195,3.999 -0.252,5.926 -0.009,0.38 -0.115,0.732 -0.167,1.118 -0.056,0.417 -0.046,0.853 -0.084,1.259 -0.048,0.492 -0.244,0.97 -0.28,1.453 -0.002,0.04 -0.004,0.079 0.029,0.084 C -0.044,-0.032 -0.032,-0.007 0,0"
             style="fill:#ffffff;fill-opacity:1;fill-rule:evenodd;stroke:none"
             id="path2901" /></g><g
           id="g2903"
           transform="translate(14.0708,26.9727)"><path
             d="m 0,0 c -0.582,0.477 -4.826,3.042 -7.101,-0.895 -0.278,-0.48 -0.845,-3.329 -0.922,-4.193 -0.061,-0.679 -0.496,-5.332 -0.276,-9.433 0.084,-1.572 0.108,-3.329 0.108,-4.77 0.666,0.564 2.829,2.578 3.214,2.992 0.214,0.229 0.913,0.802 0.98,1.118 0.055,0.263 0.433,7.577 0.503,8.277 0.029,0.292 0.197,2.633 1.649,3.326 0.411,0.195 0.714,0.353 1.175,0.447 C 0.105,-2.97 0.863,-3.09 1.51,-3.326 1.318,-2.571 1.16,-0.949 0,0 M 35.033,-4.276 C 34.77,-1.907 32.59,7.639 29.021,12.247 27.185,14.619 14.01,28.709 -0.74,14.708 -1.738,13.762 -5.446,9.541 -6.436,6.614 -7.242,4.23 -8.447,0.479 -8.827,-2.395 c -0.39,-2.947 -0.511,-14.879 -0.315,-16.839 0.189,-0.12 0.507,-0.109 0.727,-0.197 -0.036,1.379 -0.175,5.153 -0.196,5.619 -0.063,1.383 0.084,2.731 0.028,4.083 -0.116,2.833 0.503,5.975 0.587,6.598 1.014,7.53 9.156,5.136 9.562,0.812 0.059,-0.63 0.297,-1.324 0.364,-2.041 0.066,-0.727 0.283,-3.703 0.252,-4.501 -0.014,-0.33 0.211,-2.266 -0.084,-2.517 0.093,-0.483 -0.003,-2.876 0,-3.636 0.002,-0.57 -0.188,-4.782 -0.057,-5.255 1.793,-0.322 7.501,-0.375 8.443,-0.364 0.988,0.012 10.659,0.05 14.204,0.504 0.031,1.449 0.099,3.122 -0.055,4.585 0.005,0.916 -0.011,2.133 -0.057,3.215 -0.015,0.346 -0.137,0.797 0.083,1.008 0.188,-0.058 0.107,-0.281 0.112,-0.421 0.045,-1.221 0.032,-2.594 0.168,-3.662 0.785,-0.008 1.29,0.115 2.012,0.084 0.051,1.386 -0.062,3.014 -0.194,4.613 -0.095,1.174 -0.298,2.325 -0.335,3.438 -0.014,0.373 -0.289,1.81 -0.42,2.154 -0.305,0.802 -1.225,1.423 -1.93,1.492 -0.115,-2.629 -0.099,-5.002 0.001,-7.476 0.286,-0.059 0.626,0.169 0.782,-0.028 -0.119,-0.191 -0.382,-0.157 -0.559,-0.168 -0.745,-0.042 -1.482,-0.117 -2.22,-0.151 -0.938,-0.045 -12.454,-0.44 -15.447,-0.28 -2.856,0.153 -4.278,0.072 -4.363,0.405 0.41,0.01 2.187,-0.05 2.656,-0.085 1.817,-0.134 10.847,-0.1 13.531,0.055 1.797,0.105 3.586,0.208 5.367,0.224 -0.044,1.13 -0.08,2.08 -0.111,3.075 -0.012,0.402 -0.143,4.813 0.309,6.431 0.257,1.262 1.557,2.178 2.208,2.46 1.018,0.442 2.946,0.397 3.607,0.28 1.982,-0.351 2.507,-2.254 2.823,-2.628 0.244,-0.288 0.858,-2.626 0.922,-3.132 0.053,-0.407 0.301,-3.166 0.337,-4.137 0.026,-0.768 0.096,-5.113 0.11,-5.732 0.027,-1.051 0.053,-3.887 0,-4.278 0.542,0.024 0.675,-0.054 1.144,-0.043 0.069,0.361 -0.09,14.142 -0.136,14.555 M 26.4,-5.266 c 0.094,-0.484 0.225,-1.23 0.273,-1.722 0.038,-0.407 0.602,-6.274 0.503,-8.304 0.246,-0.222 6.199,-3.188 6.598,-3.328 -0.026,0.784 -0.076,6.245 -0.083,6.403 -0.068,1.32 -0.162,4.518 -0.169,4.809 -0.003,0.228 -0.273,3.863 -1.107,5.701 -2.156,4.75 -8.52,2.514 -8.452,-1.527 0.295,-0.024 0.547,-0.125 0.781,-0.25 0.84,-0.501 1.438,-1.032 1.656,-1.782 m 9.276,-13.494 c 0.142,-0.178 2.541,-0.853 2.787,-0.928 0.169,-0.05 -0.109,-0.289 -0.203,-0.191 -0.197,-0.002 -2.393,0.816 -2.584,0.84 -0.552,0.069 -1.181,-0.063 -1.734,0.056 -0.209,0.045 -0.533,0.292 -0.754,0.391 -1.316,0.59 -2.526,1.155 -3.741,1.858 -0.23,0.132 -2.164,1.025 -2.422,1.187 -0.537,-0.017 -1.49,-0.049 -2.114,-0.054 0.03,-1.539 0.072,-3.256 0.028,-4.696 -4.623,-0.654 -16.851,-0.54 -17.529,-0.504 -0.681,0.037 -4.637,0.245 -4.922,0.28 -0.266,0.034 -0.603,0.017 -0.754,0.279 0.084,0.304 0.023,0.664 0.056,1.119 0.029,0.4 0.021,2.066 0,2.489 -0.02,0.415 0.031,0.82 0.056,1.257 0.05,0.892 0.053,3.305 0.056,3.635 0,0.122 -0.043,0.247 -0.028,0.364 0.019,0.147 0.142,0.264 0.167,0.391 0.082,0.4 -0.167,3.776 -0.195,4.193 -0.078,1.14 -0.024,2.283 -0.28,3.244 -0.279,-0.008 -2.338,0.66 -3.655,-0.505 -0.297,-0.262 -0.587,-0.733 -0.734,-1.005 -0.189,-0.346 -0.429,-1.693 -0.448,-2.013 -0.036,-0.615 -0.489,-6.311 -0.503,-8.192 1.3,-0.058 2.875,-0.101 4.418,-0.084 0.188,0.003 1.05,0.076 1.146,-0.139 -0.149,-0.203 -0.381,-0.059 -0.587,-0.056 -1.555,0.019 -3.491,-0.044 -5.06,0.084 -0.706,-0.73 -3.673,-3.504 -4.334,-4.278 -1.1,0.595 -3.239,-1.14 -3.969,-1.463 -0.088,0.278 0.123,0.327 0.279,0.42 0.398,0.234 2.072,1.214 2.516,1.407 -0.006,1.054 -0.065,1.931 -0.084,3.132 -0.004,0.232 -0.102,11.179 0.151,13.417 0.262,2.319 1.402,6.784 1.749,7.887 0.342,1.084 1.633,4.112 1.874,4.585 0.645,1.264 3.589,4.768 3.775,4.948 0.392,0.384 5.486,5.801 13.307,6.767 3.564,0.441 8.474,-1.075 10.428,-2.153 5.972,-3.294 7.832,-7.17 8.104,-7.584 1.644,-2.5 1.996,-3.312 3.891,-8.269 0.203,-0.53 1.618,-4.944 1.705,-9.254 0.018,-0.868 0.028,-11.444 0.141,-12.862"
             style="fill:#878888;fill-opacity:1;fill-rule:evenodd;stroke:none"
             id="path2905" /></g><g
           id="g2907"
           transform="translate(32.4966,18.8096)"><path
             d="m 0,0 c -1.58,-0.193 -3.352,-0.495 -5.117,-0.475 -0.151,0 -5.258,0.143 -5.564,0.195 -0.217,0.038 -0.473,0.225 -0.671,0.029 -0.007,-0.032 -0.08,-0.117 -0.111,-0.057 -0.159,0.729 -0.096,1.611 -0.057,2.461 0.063,1.38 0.191,2.808 0.308,4.138 0.107,1.216 0.351,2.442 0.728,3.438 0.261,0.697 0.603,1.329 1.033,1.818 0.545,0.619 1.049,1.13 1.93,1.398 0.128,0.039 1.2,0.583 2.649,0.528 0.219,-0.009 2.268,-0.201 2.999,-1.451 0.247,-0.423 1.019,-2.109 1.258,-3.327 0.148,-0.762 0.574,-2.766 0.558,-4.61 C -0.061,3.639 0.068,0.538 0,0"
             style="fill:#84bd9f;fill-opacity:1;fill-rule:evenodd;stroke:none"
             id="path2909" /></g></g></g></g></svg>
