<?xml version="1.0" encoding="UTF-8" standalone="no"?>
<!-- Created with Inkscape (http://www.inkscape.org/) -->

<svg
   version="1.1"
   id="svg3321"
   xml:space="preserve"
   width="73.014931"
   height="73.253197"
   viewBox="0 0 73.014931 73.253197"
   sodipodi:docname="cave_mouse-over.ai.svg"
   inkscape:version="1.1 (ce6663b3b7, 2021-05-25)"
   xmlns:inkscape="http://www.inkscape.org/namespaces/inkscape"
   xmlns:sodipodi="http://sodipodi.sourceforge.net/DTD/sodipodi-0.dtd"
   xmlns="http://www.w3.org/2000/svg"
   xmlns:svg="http://www.w3.org/2000/svg"><defs
     id="defs3325"><clipPath
       clipPathUnits="userSpaceOnUse"
       id="clipPath3335"><path
         d="M 0,54.94 H 54.761 V 0 H 0 Z"
         id="path3333" /></clipPath></defs><sodipodi:namedview
     id="namedview3323"
     pagecolor="#505050"
     bordercolor="#eeeeee"
     borderopacity="1"
     inkscape:pageshadow="0"
     inkscape:pageopacity="0"
     inkscape:pagecheckerboard="0"
     showgrid="false"
     inkscape:zoom="11.521681"
     inkscape:cx="36.496409"
     inkscape:cy="36.583202"
     inkscape:window-width="1848"
     inkscape:window-height="1016"
     inkscape:window-x="72"
     inkscape:window-y="294"
     inkscape:window-maximized="1"
     inkscape:current-layer="g3327" /><g
     id="g3327"
     inkscape:groupmode="layer"
     inkscape:label="cave_mouse-over"
     transform="matrix(1.3333333,0,0,-1.3333333,0,73.2532)"><g
       id="g3329"><g
         id="g3331"
         clip-path="url(#clipPath3335)"><g
           id="g3337"
           transform="translate(53.4399,2.1729)"><path
             d="m 0,0 c 0,-0.42 -0.281,-0.76 -0.633,-0.76 h -51.174 c -0.351,0 -0.633,0.34 -0.633,0.76 v 50.925 c 0,0.42 0.282,0.757 0.633,0.757 H -0.633 C -0.281,51.682 0,51.345 0,50.925 Z"
             style="fill:#ffffff;fill-opacity:1;fill-rule:nonzero;stroke:none"
             id="path3339" /></g><g
           id="g3341"
           transform="translate(53.4399,2.1729)"><path
             d="m 0,0 c 0,-0.42 -0.281,-0.76 -0.633,-0.76 h -51.174 c -0.351,0 -0.633,0.34 -0.633,0.76 v 50.925 c 0,0.42 0.282,0.757 0.633,0.757 H -0.633 C -0.281,51.682 0,51.345 0,50.925 Z"
             style="fill:none;stroke:#772e18;stroke-width:1;stroke-linecap:butt;stroke-linejoin:miter;stroke-miterlimit:10;stroke-dasharray:none;stroke-opacity:1"
             id="path3343" /></g><g
           id="g3345"
           transform="translate(33.7817,18.0908)"><path
             d="m 0,0 c -0.035,-0.373 -3.947,-0.846 -7.351,-0.889 -1.004,-0.013 -5.752,0.162 -6.527,0.584 -0.239,0.131 0.499,10.822 1.8,12.881 1.324,2.095 3.739,2.962 5.442,2.971 1.74,0.009 4.749,-0.889 5.638,-3.556 C -0.254,9.76 -0.066,4.813 -0.066,3.23 -0.066,1.811 0.033,0.371 0,0 m 14.924,8.643 c -0.75,1.375 -2.957,11.423 -8.293,15.656 -1.379,1.095 -5.574,5.702 -14.004,5.662 -6.935,-0.032 -14.853,-6.841 -17.407,-11.296 -2.055,-3.585 -3.083,-8.344 -3.584,-10.398 -0.833,-3.415 -0.488,-18.656 -0.488,-18.656 l 0.864,-0.281 c 0,0 -0.576,13.65 0.501,17.233 0.646,2.145 1.801,3.414 3.381,3.757 1.729,0.376 3.858,-0.55 5.21,-2.004 0.521,-0.558 1.221,-4.482 1.228,-5.886 0.006,-1.405 0.006,-4.854 0.126,-4.909 0.98,-0.451 21.388,-0.203 21.743,0.151 0.125,0.125 -0.176,7.914 0.201,9.316 0.375,1.403 2.52,2.903 4.332,2.956 1.815,0.054 3.6,-1.338 4.334,-3.005 1.028,-2.33 1.203,-16.933 1.203,-16.933 0,0 1.303,-0.227 1.405,0.049 0.209,0.58 -0.002,17.213 -0.752,18.588"
             style="fill:#84bd9f;fill-opacity:1;fill-rule:nonzero;stroke:none"
             id="path3347" /></g><g
           id="g3349"
           transform="translate(32.4692,20.5635)"><path
             d="m 0,0 c 0.006,0.049 -0.006,0.592 -0.029,0.838 -0.041,0.447 0.023,0.896 0,1.342 -0.006,0.136 -0.018,0.937 -0.028,1.035 -0.041,0.4 -0.127,1.006 -0.175,1.439 -0.084,0.741 -0.219,1.375 -0.356,2.252 -0.078,0.495 -0.178,0.764 -0.336,1.174 -0.228,0.596 -0.617,1.769 -0.922,2.153 -0.152,0.19 -0.888,0.871 -1.203,0.978 -0.318,0.109 -1.374,0.263 -1.593,0.279 -0.762,0.058 -2.723,-0.295 -2.852,-0.334 -0.881,-0.269 -1.384,-0.78 -1.929,-1.399 -0.43,-0.489 -0.772,-1.121 -1.034,-1.817 -0.376,-0.996 -0.621,-2.223 -0.727,-3.438 -0.117,-1.33 -0.245,-2.758 -0.308,-4.139 -0.039,-0.849 -0.102,-1.732 0.057,-2.461 -0.248,-0.246 -0.634,-0.355 -0.867,-0.613 0.748,-0.365 1.859,-0.244 2.851,-0.309 0.66,-0.043 1.398,-0.187 3.151,-0.25 0.269,-0.009 1.146,0.055 1.463,0.055 1.076,0 2.062,0.154 3.019,0.223 0.119,0.029 2.457,0.199 2.824,0.418 -0.307,0.16 -0.5,0.433 -0.783,0.617 -1.325,-0.209 -2.76,-0.441 -4.166,-0.504 -0.637,-0.027 -2.672,0.01 -2.991,0.027 -1.317,0.077 -2.865,-0.029 -3.915,0.17 -0.159,0.03 -0.553,0.035 -0.615,0.215 0.197,0.197 0.593,0.018 0.811,-0.021 0.306,-0.051 3.013,-0.063 3.914,-0.166 0.32,-0.037 1.097,-0.01 1.202,0 0.151,0.013 3.984,0.254 5.564,0.447 C -0.018,-1.26 -0.008,-0.047 0,0 M 0.977,4.781 C 0.955,4.924 0.621,7.679 0.613,7.8 0.592,8.185 0.098,9.756 -0.113,10.149 c -0.412,0.773 -1.02,1.399 -1.678,1.817 -1.647,0.86 -2.467,1.077 -4.304,0.951 -0.513,-0.035 -2.251,-0.466 -3.328,-1.371 -0.469,-0.394 -0.897,-0.9 -1.202,-1.397 -0.328,-0.534 -0.875,-2.82 -0.978,-3.3 -0.094,-0.432 -0.703,-6.042 -0.728,-6.347 -0.029,-0.359 -0.062,-2.385 -0.168,-3.018 0.205,0.123 0.558,0.336 0.812,0.502 -0.15,1.09 -0.078,2.11 -0.027,3.215 0.03,0.695 0.506,4.981 0.614,5.481 0.382,1.772 0.94,3.098 2.181,3.969 1.707,1.199 3.439,1.293 3.908,1.266 0.568,-0.034 1.482,-0.278 2.019,-0.454 1.49,-0.645 2.07,-2.364 2.545,-4.054 C -0.303,6.892 0.059,4.482 0.082,4.277 0.104,4.105 0.15,2.428 0.166,1.678 0.18,1.07 0.184,-1.158 0.307,-1.678 0.33,-1.748 0.988,-2.137 1.201,-2.35 1.164,-1.457 1.104,3.988 0.977,4.781 M -12.75,-2.824 c 0.131,1.049 0.192,3.955 0.223,4.25 0.1,0.914 0.543,6.336 1.454,8.415 0.324,0.741 0.964,1.373 1.567,1.957 0.311,0.302 1.373,1.006 2.712,1.286 2.339,0.491 3.55,-0.128 5.087,-0.894 0.715,-0.441 1.318,-1.017 1.734,-1.817 C 0.348,9.753 0.783,8.54 0.838,8.024 0.928,7.17 1.375,3.564 1.369,2.908 1.365,2.391 1.385,-0.391 1.426,-1.482 1.439,-1.861 1.52,-2.297 1.453,-2.488 1.375,-2.717 1.182,-2.82 0.895,-2.908 c -1.249,-0.229 -2.424,-0.281 -3.86,-0.391 -1.453,-0.113 -3.507,-0.236 -4.808,-0.14 -0.373,0.027 -3.609,0.222 -4.139,0.335 -0.3,0.065 -0.57,0.254 -0.838,0.28"
             style="fill:#000000;fill-opacity:1;fill-rule:evenodd;stroke:none"
             id="path3351" /></g><g
           id="g3353"
           transform="translate(40.5493,21.542)"><path
             d="m 0,0 c -0.012,0.07 -0.109,0.002 -0.086,-0.057 -0.404,0.938 -1.059,1.625 -1.9,2.125 -0.27,-0.011 -0.403,0.118 -0.7,0.141 0.329,1.004 1.733,3.478 2.293,3.691 C 0.092,6.082 0.408,6.195 0.951,6.291 1.555,6.397 1.98,6.608 2.627,6.514 3.102,6.236 3.709,6.292 4.137,6.067 4.229,6.019 4.311,5.892 4.416,5.815 5.154,5.277 5.541,4.443 6.066,3.635 6.17,3.475 6.252,3.309 6.373,3.133 6.561,2.008 6.9,1.014 6.934,-0.141 6.938,-0.264 6.902,-0.402 6.904,-0.531 6.91,-0.73 6.98,-0.936 6.99,-1.146 6.992,-1.246 6.953,-1.354 6.961,-1.455 6.975,-1.645 7.041,-1.785 7.045,-2.014 7.051,-2.305 7.168,-2.59 7.184,-2.852 7.262,-4.07 7.145,-5.502 7.213,-6.822 7.221,-6.98 7.318,-7.148 7.324,-7.297 7.346,-7.766 7.256,-8.324 7.268,-8.891 7.27,-8.969 7.316,-9.037 7.324,-9.115 c 0.055,-0.586 -0.117,-1.174 -0.168,-1.762 -0.068,-0.797 0.114,-1.564 0.141,-2.348 -0.401,0.139 -0.727,0.338 -1.119,0.504 -0.246,0.102 -0.514,0.176 -0.699,0.364 -0.124,-0.022 -0.168,0.037 -0.28,0.027 -1.191,0.56 -2.187,1.316 -3.467,1.789 -0.05,0.043 -0.115,0.07 -0.14,0.141 -0.574,-0.112 -0.649,0.281 -0.895,0.504 0.1,2.029 -0.195,3.998 -0.252,5.925 C 0.436,-3.59 0.33,-3.238 0.279,-2.852 0.223,-2.436 0.232,-2 0.195,-1.594 0.146,-1.102 -0.049,-0.623 -0.086,-0.141 -0.088,-0.1 -0.09,-0.061 -0.057,-0.057 -0.045,-0.031 -0.033,-0.006 0,0"
             style="fill:#ffffff;fill-opacity:1;fill-rule:evenodd;stroke:none"
             id="path3355" /></g><g
           id="g3357"
           transform="translate(14.0713,26.937)"><path
             d="m 0,0 c -0.582,0.477 -4.826,3.042 -7.101,-0.895 -0.278,-0.48 -0.845,-3.328 -0.922,-4.193 -0.061,-0.678 -0.496,-5.332 -0.276,-9.432 0.084,-1.572 0.108,-3.33 0.108,-4.772 0.666,0.565 2.829,2.579 3.214,2.993 0.214,0.228 0.913,0.802 0.98,1.119 0.055,0.262 0.433,7.576 0.503,8.275 0.029,0.293 0.197,2.635 1.649,3.326 0.411,0.196 0.714,0.354 1.175,0.448 0.775,0.162 1.533,0.041 2.18,-0.196 C 1.318,-2.571 1.16,-0.95 0,0 M 35.033,-4.276 C 34.769,-1.907 32.589,7.639 29.021,12.247 27.185,14.619 14.01,28.709 -0.74,14.708 -1.738,13.762 -5.446,9.541 -6.436,6.614 -7.242,4.23 -8.447,0.479 -8.827,-2.395 c -0.39,-2.947 -0.511,-14.879 -0.315,-16.84 0.189,-0.119 0.507,-0.107 0.727,-0.195 -0.036,1.379 -0.175,5.152 -0.196,5.619 -0.063,1.383 0.084,2.73 0.028,4.082 -0.116,2.832 0.503,5.975 0.587,6.598 1.014,7.53 9.156,5.136 9.562,0.812 0.059,-0.631 0.297,-1.324 0.364,-2.041 0.066,-0.726 0.283,-3.703 0.252,-4.502 -0.014,-0.33 0.211,-2.265 -0.084,-2.515 0.093,-0.485 -0.003,-2.877 0,-3.637 0.002,-0.57 -0.188,-4.781 -0.057,-5.254 1.793,-0.322 7.501,-0.375 8.443,-0.365 0.988,0.011 10.658,0.05 14.205,0.504 0.029,1.449 0.098,3.123 -0.057,4.586 0.006,0.916 -0.009,2.132 -0.056,3.214 -0.016,0.346 -0.137,0.797 0.084,1.008 0.187,-0.058 0.105,-0.281 0.111,-0.422 0.045,-1.22 0.031,-2.593 0.168,-3.662 0.785,-0.008 1.289,0.115 2.012,0.084 0.05,1.387 -0.063,3.016 -0.194,4.613 -0.095,1.174 -0.299,2.327 -0.336,3.44 -0.013,0.373 -0.289,1.809 -0.42,2.152 -0.304,0.803 -1.224,1.424 -1.929,1.492 -0.115,-2.628 -0.1,-5.001 0.002,-7.474 0.285,-0.061 0.625,0.168 0.781,-0.029 -0.119,-0.192 -0.383,-0.157 -0.559,-0.168 -0.746,-0.041 -1.482,-0.118 -2.22,-0.151 -0.938,-0.045 -12.454,-0.439 -15.447,-0.279 -2.856,0.152 -4.278,0.07 -4.363,0.404 0.41,0.01 2.187,-0.051 2.656,-0.086 1.817,-0.133 10.847,-0.099 13.531,0.057 1.797,0.103 3.586,0.207 5.367,0.223 -0.043,1.13 -0.08,2.08 -0.112,3.076 -0.011,0.4 -0.142,4.812 0.309,6.429 0.258,1.262 1.559,2.179 2.209,2.461 1.018,0.442 2.945,0.397 3.607,0.28 1.983,-0.351 2.506,-2.254 2.823,-2.627 0.244,-0.289 0.857,-2.627 0.922,-3.133 0.052,-0.406 0.3,-3.166 0.338,-4.137 0.025,-0.767 0.095,-5.113 0.109,-5.732 0.027,-1.051 0.053,-3.887 0,-4.278 0.543,0.024 0.676,-0.054 1.144,-0.043 0.069,0.362 -0.089,14.141 -0.136,14.555 M 26.4,-5.266 c 0.094,-0.484 0.225,-1.231 0.273,-1.723 0.037,-0.406 0.602,-6.273 0.502,-8.303 0.246,-0.222 6.2,-3.189 6.6,-3.328 -0.027,0.784 -0.076,6.245 -0.084,6.403 -0.068,1.32 -0.162,4.517 -0.168,4.808 -0.004,0.229 -0.273,3.864 -1.107,5.701 -2.157,4.751 -8.522,2.515 -8.454,-1.527 0.295,-0.023 0.547,-0.125 0.782,-0.25 0.839,-0.5 1.437,-1.031 1.656,-1.781 m 9.275,-13.494 c 0.143,-0.178 2.541,-0.854 2.787,-0.928 0.17,-0.051 -0.107,-0.289 -0.203,-0.191 -0.197,-0.002 -2.392,0.816 -2.584,0.839 -0.55,0.071 -1.179,-0.062 -1.732,0.057 -0.209,0.045 -0.533,0.291 -0.756,0.391 -1.314,0.59 -2.525,1.156 -3.74,1.857 -0.231,0.133 -2.164,1.026 -2.422,1.188 -0.537,-0.018 -1.49,-0.049 -2.113,-0.053 0.029,-1.539 0.072,-3.258 0.027,-4.697 -4.623,-0.655 -16.851,-0.539 -17.529,-0.504 -0.681,0.037 -4.637,0.246 -4.922,0.281 -0.266,0.033 -0.603,0.016 -0.754,0.277 0.084,0.305 0.023,0.664 0.056,1.119 0.029,0.401 0.021,2.067 0,2.491 -0.02,0.414 0.031,0.818 0.056,1.256 0.05,0.892 0.053,3.304 0.056,3.634 0,0.123 -0.043,0.248 -0.028,0.366 0.019,0.146 0.142,0.263 0.167,0.39 0.082,0.401 -0.167,3.776 -0.195,4.194 -0.078,1.138 -0.024,2.283 -0.28,3.244 -0.279,-0.008 -2.338,0.66 -3.655,-0.506 -0.297,-0.262 -0.587,-0.733 -0.734,-1.004 -0.189,-0.348 -0.429,-1.693 -0.448,-2.014 -0.036,-0.615 -0.489,-6.31 -0.503,-8.191 1.3,-0.059 2.875,-0.102 4.418,-0.084 0.188,0.002 1.05,0.074 1.146,-0.141 -0.149,-0.203 -0.381,-0.058 -0.587,-0.054 -1.555,0.017 -3.491,-0.045 -5.06,0.084 -0.706,-0.731 -3.673,-3.504 -4.334,-4.28 -1.1,0.596 -3.239,-1.138 -3.969,-1.463 -0.088,0.28 0.123,0.328 0.279,0.42 0.398,0.235 2.072,1.215 2.516,1.408 -0.006,1.053 -0.065,1.93 -0.084,3.131 -0.004,0.233 -0.102,11.18 0.151,13.418 0.262,2.319 1.402,6.784 1.749,7.887 0.342,1.084 1.633,4.112 1.874,4.585 0.645,1.264 3.589,4.768 3.775,4.948 0.392,0.384 5.486,5.801 13.307,6.767 3.564,0.441 8.473,-1.075 10.428,-2.153 5.971,-3.294 7.832,-7.17 8.104,-7.584 1.644,-2.5 1.996,-3.312 3.891,-8.269 0.203,-0.53 1.619,-4.944 1.705,-9.255 0.017,-0.867 0.027,-11.443 0.14,-12.861"
             style="fill:#000000;fill-opacity:1;fill-rule:evenodd;stroke:none"
             id="path3359" /></g><g
           id="g3361"
           transform="translate(32.4966,18.7744)"><path
             d="m 0,0 c -1.58,-0.193 -3.351,-0.496 -5.117,-0.475 -0.15,0 -5.258,0.143 -5.563,0.194 -0.218,0.039 -0.474,0.226 -0.671,0.029 -0.008,-0.031 -0.08,-0.117 -0.111,-0.057 -0.16,0.729 -0.096,1.612 -0.057,2.461 0.062,1.381 0.19,2.809 0.308,4.139 0.106,1.215 0.35,2.442 0.727,3.438 0.262,0.696 0.604,1.328 1.033,1.817 0.545,0.62 1.049,1.13 1.93,1.399 0.129,0.039 1.2,0.583 2.649,0.527 0.219,-0.009 2.268,-0.2 2.999,-1.45 0.248,-0.424 1.019,-2.109 1.258,-3.327 C -0.467,7.932 -0.041,5.928 -0.057,4.084 -0.061,3.639 0.068,0.537 0,0"
             style="fill:#ffffff;fill-opacity:1;fill-rule:evenodd;stroke:none"
             id="path3363" /></g><g
           id="g3365"
           transform="translate(7.5029,34.4185)"><path
             d="M 0,0 C -1.895,0.53 -3.533,1.138 -5.486,1.435"
             style="fill:none;stroke:#000000;stroke-width:0.25;stroke-linecap:butt;stroke-linejoin:miter;stroke-miterlimit:10;stroke-dasharray:none;stroke-opacity:1"
             id="path3367" /></g><g
           id="g3369"
           transform="translate(52.4692,35.478)"><path
             d="M 0,0 C -2.297,-0.109 -4.326,-0.504 -6.65,-0.87"
             style="fill:none;stroke:#000000;stroke-width:0.25;stroke-linecap:butt;stroke-linejoin:miter;stroke-miterlimit:10;stroke-dasharray:none;stroke-opacity:1"
             id="path3371" /></g></g></g></g></svg>
