<?xml version="1.0" encoding="UTF-8" standalone="no"?>
<!-- Created with Inkscape (http://www.inkscape.org/) -->

<svg
     pagecolor="#505050"
     bordercolor="#eeeeee"
     borderopacity="1"
     inkscape:pageshadow="0"
     inkscape:pageopacity="0"
     inkscape:pagecheckerboard="0"
     showgrid="false"
     inkscape:zoom="11.016584"
     inkscape:cx="36.535826"
     inkscape:cy="36.626598"
     inkscape:window-width="1848"
     inkscape:window-height="1016"
     inkscape:window-x="72"
     inkscape:window-y="294"
     inkscape:window-maximized="1"
     inkscape:current-layer="g3143"
   version="1.1"
   id="svg3137"
   xml:space="preserve"
   width="73.014931"
   height="73.253197"
   viewBox="0 0 73.014931 73.253197"
   sodipodi:docname="cave_button.ai.svg"
   inkscape:version="1.1 (ce6663b3b7, 2021-05-25)"
   xmlns:inkscape="http://www.inkscape.org/namespaces/inkscape"
   xmlns:sodipodi="http://sodipodi.sourceforge.net/DTD/sodipodi-0.dtd"
   xmlns="http://www.w3.org/2000/svg"
   xmlns:svg="http://www.w3.org/2000/svg"><defs
     id="defs3141"><clipPath
       clipPathUnits="userSpaceOnUse"
       id="clipPath3151"><path
         d="M 0,54.94 H 54.761 V 0 H 0 Z"
         id="path3149" /></clipPath></defs>
    <g
     id="g3143"
     inkscape:groupmode="layer"
     inkscape:label="cave_button"
     transform="matrix(1.3333333,0,0,-1.3333333,0,73.2532)"><g
       id="g3145"><g
         id="g3147"
         clip-path="url(#clipPath3151)"><g
           id="g3153"
           transform="translate(53.4399,1.8496)"><path
             d="m 0,0 c 0,-0.419 -0.281,-0.759 -0.633,-0.759 h -51.174 c -0.351,0 -0.633,0.34 -0.633,0.759 v 50.926 c 0,0.42 0.282,0.757 0.633,0.757 H -0.633 C -0.281,51.683 0,51.346 0,50.926 Z"
             style="fill:#ffffff;fill-opacity:1;fill-rule:nonzero;stroke:none"
             id="path3155" /></g><g
           id="g3157"
           transform="translate(53.4399,1.8496)"><path
             d="m 0,0 c 0,-0.419 -0.281,-0.759 -0.633,-0.759 h -51.174 c -0.351,0 -0.633,0.34 -0.633,0.759 v 50.926 c 0,0.42 0.282,0.757 0.633,0.757 H -0.633 C -0.281,51.683 0,51.346 0,50.926 Z"
             style="fill:none;stroke:#772e18;stroke-width:1;stroke-linecap:butt;stroke-linejoin:miter;stroke-miterlimit:10;stroke-dasharray:none;stroke-opacity:1"
             id="path3159" /></g><g
           id="g3161"
           transform="translate(32.4692,20.2402)"><path
             d="m 0,0 c 0.006,0.049 -0.006,0.593 -0.029,0.839 -0.041,0.446 0.023,0.896 0,1.342 -0.006,0.136 -0.018,0.937 -0.028,1.035 -0.041,0.4 -0.127,1.006 -0.175,1.439 -0.084,0.74 -0.219,1.375 -0.356,2.251 -0.078,0.495 -0.178,0.765 -0.336,1.174 -0.228,0.597 -0.617,1.77 -0.922,2.153 -0.152,0.191 -0.888,0.871 -1.203,0.979 -0.318,0.108 -1.374,0.263 -1.593,0.278 -0.762,0.059 -2.723,-0.295 -2.852,-0.334 -0.881,-0.268 -1.384,-0.779 -1.929,-1.398 -0.43,-0.489 -0.772,-1.121 -1.034,-1.818 -0.376,-0.996 -0.621,-2.222 -0.727,-3.438 -0.117,-1.33 -0.245,-2.758 -0.308,-4.138 -0.039,-0.85 -0.102,-1.732 0.057,-2.461 -0.248,-0.247 -0.634,-0.355 -0.867,-0.614 0.748,-0.365 1.859,-0.243 2.851,-0.309 0.66,-0.042 1.398,-0.187 3.151,-0.249 0.269,-0.009 1.146,0.054 1.463,0.054 1.076,0 2.062,0.155 3.019,0.224 0.119,0.028 2.457,0.198 2.824,0.418 -0.307,0.16 -0.5,0.433 -0.783,0.617 -1.325,-0.209 -2.76,-0.442 -4.166,-0.504 -0.637,-0.027 -2.672,0.009 -2.991,0.027 -1.317,0.077 -2.865,-0.03 -3.915,0.169 -0.159,0.03 -0.553,0.035 -0.615,0.216 0.197,0.197 0.593,0.017 0.811,-0.021 0.306,-0.052 3.013,-0.063 3.914,-0.167 0.32,-0.037 1.097,-0.01 1.202,0 0.151,0.013 3.984,0.254 5.564,0.447 C -0.018,-1.26 -0.008,-0.046 0,0 M 0.977,4.781 C 0.955,4.925 0.621,7.68 0.613,7.801 0.592,8.186 0.098,9.757 -0.113,10.149 c -0.412,0.774 -1.02,1.4 -1.678,1.818 -1.647,0.859 -2.467,1.077 -4.304,0.95 -0.513,-0.034 -2.251,-0.466 -3.328,-1.37 -0.469,-0.395 -0.897,-0.901 -1.202,-1.398 -0.328,-0.534 -0.875,-2.82 -0.978,-3.299 -0.094,-0.433 -0.703,-6.042 -0.728,-6.347 -0.029,-0.359 -0.062,-2.386 -0.168,-3.019 0.205,0.123 0.558,0.336 0.812,0.503 -0.15,1.089 -0.078,2.11 -0.027,3.215 0.03,0.694 0.506,4.981 0.614,5.481 0.382,1.771 0.94,3.097 2.181,3.968 1.707,1.2 3.439,1.293 3.908,1.266 0.568,-0.033 1.482,-0.277 2.019,-0.453 1.49,-0.646 2.07,-2.364 2.545,-4.055 C -0.303,6.893 0.059,4.482 0.082,4.278 0.104,4.106 0.15,2.428 0.166,1.678 0.18,1.071 0.184,-1.158 0.307,-1.678 0.33,-1.747 0.988,-2.136 1.201,-2.349 1.164,-1.456 1.104,3.989 0.977,4.781 M -12.75,-2.824 c 0.131,1.049 0.192,3.956 0.223,4.25 0.1,0.915 0.543,6.337 1.454,8.416 0.324,0.74 0.964,1.373 1.567,1.957 0.311,0.302 1.373,1.006 2.712,1.286 2.339,0.49 3.55,-0.129 5.087,-0.895 0.715,-0.441 1.318,-1.016 1.734,-1.817 C 0.348,9.754 0.783,8.54 0.838,8.024 0.928,7.171 1.375,3.565 1.369,2.908 1.365,2.392 1.385,-0.391 1.426,-1.481 1.439,-1.861 1.52,-2.297 1.453,-2.487 1.375,-2.716 1.102,-2.757 0.895,-2.907 c -1.249,-0.229 -2.559,-0.264 -3.86,-0.392 -0.441,-0.044 -0.876,-0.1 -1.313,-0.139 -0.593,-0.054 -3.126,0.018 -3.495,0 -0.374,-0.02 -3.609,0.221 -4.139,0.334 -0.3,0.066 -0.57,0.254 -0.838,0.28"
             style="fill:#000000;fill-opacity:1;fill-rule:evenodd;stroke:none"
             id="path3163" /></g><g
           id="g3165"
           transform="translate(40.5493,21.2197)"><path
             d="m 0,0 c -0.012,0.069 -0.109,0.001 -0.086,-0.057 -0.404,0.937 -1.059,1.624 -1.9,2.125 -0.27,-0.011 -0.403,0.117 -0.7,0.14 0.329,1.005 1.733,3.479 2.293,3.691 C 0.092,6.081 0.408,6.194 0.951,6.29 1.555,6.396 1.98,6.607 2.627,6.514 3.102,6.235 3.709,6.292 4.137,6.066 4.229,6.019 4.311,5.892 4.416,5.814 5.154,5.276 5.541,4.443 6.066,3.634 6.17,3.474 6.252,3.308 6.373,3.132 6.561,2.008 6.9,1.014 6.934,-0.141 6.938,-0.265 6.902,-0.403 6.904,-0.531 6.91,-0.73 6.98,-0.937 6.99,-1.146 6.992,-1.246 6.953,-1.354 6.961,-1.455 6.975,-1.646 7.041,-1.785 7.045,-2.014 7.051,-2.305 7.168,-2.59 7.184,-2.853 7.262,-4.07 7.145,-5.503 7.213,-6.822 7.221,-6.98 7.318,-7.149 7.324,-7.298 7.346,-7.766 7.256,-8.324 7.268,-8.892 7.27,-8.97 7.316,-9.037 7.324,-9.115 7.379,-9.702 7.207,-10.29 7.156,-10.877 c -0.068,-0.798 0.114,-1.564 0.141,-2.349 -0.401,0.14 -0.727,0.339 -1.119,0.505 -0.246,0.102 -0.514,0.176 -0.699,0.364 -0.124,-0.023 -0.168,0.037 -0.28,0.026 -1.191,0.56 -2.187,1.317 -3.467,1.79 -0.05,0.043 -0.115,0.07 -0.14,0.14 -0.574,-0.111 -0.649,0.282 -0.895,0.504 0.1,2.03 -0.195,3.999 -0.252,5.926 -0.009,0.38 -0.115,0.732 -0.166,1.118 -0.056,0.417 -0.047,0.853 -0.084,1.259 -0.049,0.492 -0.244,0.97 -0.281,1.453 -0.002,0.04 -0.004,0.079 0.029,0.084 C -0.045,-0.032 -0.033,-0.007 0,0"
             style="fill:#ffffff;fill-opacity:1;fill-rule:evenodd;stroke:none"
             id="path3167" /></g><g
           id="g3169"
           transform="translate(14.0713,26.6143)"><path
             d="m 0,0 c -0.582,0.477 -4.826,3.042 -7.101,-0.895 -0.278,-0.48 -0.845,-3.329 -0.922,-4.193 -0.061,-0.679 -0.496,-5.332 -0.276,-9.433 0.084,-1.572 0.108,-3.329 0.108,-4.77 0.666,0.564 2.829,2.578 3.214,2.992 0.214,0.229 0.913,0.802 0.98,1.118 0.055,0.263 0.433,7.577 0.503,8.277 0.029,0.292 0.197,2.633 1.649,3.326 0.411,0.195 0.714,0.353 1.175,0.447 C 0.105,-2.97 0.863,-3.09 1.51,-3.326 1.318,-2.571 1.16,-0.949 0,0 M 35.033,-4.276 C 34.769,-1.907 32.589,7.639 29.021,12.247 27.185,14.619 14.01,28.709 -0.74,14.708 -1.738,13.762 -5.446,9.541 -6.436,6.614 -7.242,4.23 -8.447,0.479 -8.827,-2.395 c -0.39,-2.947 -0.511,-14.879 -0.315,-16.839 0.189,-0.12 0.507,-0.109 0.727,-0.197 -0.036,1.379 -0.175,5.153 -0.196,5.619 -0.063,1.383 0.084,2.731 0.028,4.083 -0.116,2.833 0.503,5.975 0.587,6.598 1.014,7.53 9.156,5.136 9.562,0.812 0.059,-0.63 0.297,-1.324 0.364,-2.041 0.066,-0.727 0.283,-3.703 0.252,-4.501 -0.014,-0.33 0.211,-2.266 -0.084,-2.517 0.093,-0.483 -0.003,-2.876 0,-3.636 0.002,-0.57 -0.188,-4.782 -0.057,-5.255 1.793,-0.322 7.501,-0.375 8.443,-0.364 0.988,0.012 10.658,0.05 14.205,0.504 0.029,1.449 0.098,3.122 -0.057,4.585 0.006,0.916 -0.009,2.133 -0.056,3.215 -0.016,0.346 -0.137,0.797 0.084,1.008 0.187,-0.058 0.105,-0.281 0.111,-0.421 0.045,-1.221 0.031,-2.594 0.168,-3.662 0.785,-0.008 1.289,0.115 2.012,0.084 0.05,1.386 -0.063,3.014 -0.194,4.613 -0.095,1.174 -0.299,2.325 -0.336,3.438 -0.013,0.373 -0.289,1.81 -0.42,2.154 -0.304,0.802 -1.224,1.423 -1.929,1.492 -0.115,-2.629 -0.1,-5.002 0.002,-7.476 0.285,-0.059 0.625,0.169 0.781,-0.028 -0.119,-0.191 -0.383,-0.157 -0.559,-0.168 -0.746,-0.042 -1.482,-0.117 -2.22,-0.151 -0.938,-0.045 -12.454,-0.44 -15.447,-0.28 -2.856,0.153 -4.278,0.072 -4.363,0.405 0.41,0.01 2.187,-0.05 2.656,-0.085 1.817,-0.134 10.847,-0.1 13.531,0.055 1.797,0.105 3.586,0.208 5.367,0.224 -0.043,1.13 -0.08,2.08 -0.112,3.075 -0.011,0.402 -0.142,4.813 0.309,6.431 0.258,1.262 1.559,2.178 2.209,2.46 1.018,0.442 2.945,0.397 3.607,0.28 1.983,-0.351 2.506,-2.254 2.823,-2.628 0.244,-0.288 0.857,-2.626 0.922,-3.132 0.052,-0.407 0.3,-3.166 0.338,-4.137 0.025,-0.768 0.095,-5.113 0.109,-5.732 0.027,-1.051 0.053,-3.887 0,-4.278 0.543,0.024 0.676,-0.054 1.144,-0.043 0.069,0.361 -0.089,14.142 -0.136,14.555 M 26.4,-5.266 c 0.094,-0.484 0.225,-1.23 0.273,-1.722 0.037,-0.407 0.602,-6.274 0.502,-8.304 0.246,-0.222 6.2,-3.188 6.6,-3.328 -0.027,0.784 -0.076,6.245 -0.084,6.403 -0.068,1.32 -0.162,4.518 -0.168,4.809 -0.004,0.228 -0.273,3.863 -1.107,5.701 -2.157,4.75 -8.522,2.514 -8.454,-1.527 0.295,-0.024 0.547,-0.125 0.782,-0.25 0.839,-0.501 1.437,-1.032 1.656,-1.782 m 9.275,-13.494 c 0.143,-0.178 2.541,-0.853 2.787,-0.928 0.17,-0.05 -0.107,-0.289 -0.203,-0.191 -0.197,-0.002 -2.392,0.816 -2.584,0.84 -0.55,0.069 -1.179,-0.063 -1.732,0.056 -0.209,0.045 -0.533,0.292 -0.756,0.391 -1.314,0.59 -2.525,1.155 -3.74,1.858 -0.231,0.132 -2.164,1.025 -2.422,1.187 -0.537,-0.017 -1.49,-0.049 -2.113,-0.054 0.029,-1.539 0.072,-3.256 0.027,-4.696 -4.623,-0.654 -16.851,-0.54 -17.529,-0.504 -0.681,0.037 -4.637,0.245 -4.922,0.28 -0.266,0.034 -0.603,0.017 -0.754,0.279 0.084,0.304 0.023,0.664 0.056,1.119 0.029,0.4 0.021,2.066 0,2.489 -0.02,0.415 0.031,0.82 0.056,1.257 0.05,0.892 0.053,3.305 0.056,3.635 0,0.122 -0.043,0.247 -0.028,0.364 0.019,0.147 0.142,0.264 0.167,0.391 0.082,0.4 -0.167,3.776 -0.195,4.193 -0.078,1.14 -0.024,2.283 -0.28,3.244 -0.279,-0.008 -2.338,0.66 -3.655,-0.505 -0.297,-0.262 -0.587,-0.733 -0.734,-1.005 -0.189,-0.346 -0.429,-1.693 -0.448,-2.013 -0.036,-0.615 -0.489,-6.311 -0.503,-8.192 1.3,-0.058 2.875,-0.101 4.418,-0.084 0.188,0.003 1.05,0.076 1.146,-0.139 -0.149,-0.203 -0.381,-0.059 -0.587,-0.056 -1.555,0.019 -3.491,-0.044 -5.06,0.084 -0.706,-0.73 -3.673,-3.504 -4.334,-4.278 -1.1,0.595 -3.239,-1.14 -3.969,-1.463 -0.088,0.278 0.123,0.327 0.279,0.42 0.398,0.234 2.072,1.214 2.516,1.407 -0.006,1.054 -0.065,1.931 -0.084,3.132 -0.004,0.232 -0.102,11.179 0.151,13.417 0.262,2.319 1.402,6.784 1.749,7.887 0.342,1.084 1.633,4.112 1.874,4.585 0.645,1.264 3.589,4.768 3.775,4.948 0.392,0.384 5.486,5.801 13.307,6.767 3.564,0.441 8.473,-1.075 10.428,-2.153 5.971,-3.294 7.832,-7.17 8.104,-7.584 1.644,-2.5 1.996,-3.312 3.891,-8.269 0.203,-0.53 1.619,-4.944 1.705,-9.254 0.017,-0.868 0.027,-11.444 0.14,-12.862"
             style="fill:#000000;fill-opacity:1;fill-rule:evenodd;stroke:none"
             id="path3171" /></g><g
           id="g3173"
           transform="translate(32.4966,18.4512)"><path
             d="m 0,0 c -1.58,-0.193 -3.351,-0.495 -5.117,-0.475 -0.15,0 -5.258,0.143 -5.563,0.195 -0.218,0.038 -0.474,0.225 -0.671,0.029 -0.008,-0.032 -0.08,-0.117 -0.111,-0.057 -0.16,0.729 -0.096,1.611 -0.057,2.461 0.062,1.38 0.19,2.808 0.308,4.138 0.106,1.216 0.35,2.442 0.727,3.438 0.262,0.697 0.604,1.329 1.033,1.818 0.545,0.619 1.049,1.13 1.93,1.398 0.129,0.039 1.2,0.583 2.649,0.528 0.219,-0.009 2.268,-0.201 2.999,-1.451 0.248,-0.423 1.019,-2.109 1.258,-3.327 0.148,-0.762 0.574,-2.766 0.558,-4.61 C -0.061,3.639 0.068,0.538 0,0"
             style="fill:#84bd9f;fill-opacity:1;fill-rule:evenodd;stroke:none"
             id="path3175" /></g><g
           id="g3177"
           transform="translate(7.5029,34.0957)"><path
             d="M 0,0 C -1.895,0.53 -3.533,1.138 -5.486,1.435"
             style="fill:none;stroke:#000000;stroke-width:0.25;stroke-linecap:butt;stroke-linejoin:miter;stroke-miterlimit:10;stroke-dasharray:none;stroke-opacity:1"
             id="path3179" /></g><g
           id="g3181"
           transform="translate(52.4692,35.1553)"><path
             d="M 0,0 C -2.297,-0.109 -4.326,-0.504 -6.65,-0.87"
             style="fill:none;stroke:#000000;stroke-width:0.25;stroke-linecap:butt;stroke-linejoin:miter;stroke-miterlimit:10;stroke-dasharray:none;stroke-opacity:1"
             id="path3183" /></g></g></g></g></svg>
